PathFileType	4	(X/Y/Z)	Run_400 02
DataRate	CameraRate	NumFrames	NumMarkers	Units	OrigDataRate	OrigDataStartFrame	OrigNumFrames
100	100	8	42	mm	100	23	128
Frame#	Time	LPSI			RPSI			RTH2			RTH3			LTH1			LTH2			LTH3			RTB1			RTB2			LTB1			LTB2			RCAL			RTOE			RMT5			LCAL			LTOE			LMT5			LACR			RACR			CLAV			C7			RUA1			RUA2			RUA3			RLEL			LUA1			LUA2			LUA3			LLEL			LMEL			RFAsuperior			RFAulna			LFAsuperior			LFAradius			LFAulna			RASI			RTB3			LTB3			RMEL			RFAradius			RTH1			LASI			
		X1	Y1	Z1	X2	Y2	Z2	X3	Y3	Z3	X4	Y4	Z4	X5	Y5	Z5	X6	Y6	Z6	X7	Y7	Z7	X8	Y8	Z8	X9	Y9	Z9	X10	Y10	Z10	X11	Y11	Z11	X12	Y12	Z12	X13	Y13	Z13	X14	Y14	Z14	X15	Y15	Z15	X16	Y16	Z16	X17	Y17	Z17	X18	Y18	Z18	X19	Y19	Z19	X20	Y20	Z20	X21	Y21	Z21	X22	Y22	Z22	X23	Y23	Z23	X24	Y24	Z24	X25	Y25	Z25	X26	Y26	Z26	X27	Y27	Z27	X28	Y28	Z28	X29	Y29	Z29	X30	Y30	Z30	X31	Y31	Z31	X32	Y32	Z32	X33	Y33	Z33	X34	Y34	Z34	X35	Y35	Z35	X36	Y36	Z36	X37	Y37	Z37	X38	Y38	Z38	X39	Y39	Z39	X40	Y40	Z40	X41	Y41	Z41	X42	Y42	Z42	

1	0.87	897.988922	1126.085216	-418.402209	875.133634	1125.772715	-306.349653	962.889436	802.34785	-191.065498	1057.935217	674.724747	-198.585819	996.556871	926.447076	-509.850235	878.495275	800.485721	-474.15123	893.433322	657.199068	-465.962349	1191.191651	452.731931	-268.614655	1121.429148	385.625752	-207.924389	778.238933	468.538062	-407.265957	654.896918	528.338472	-461.358712	1132.279486	102.436758	-299.900352	1359.528	175.200379	-340.676237	1338.561887	109.613419	-254.417918	424.206641	541.9118089999999	-401.022972	396.590342	306.130536	-396.302396	356.401114	356.204253	-488.482935	1025.095745	1570.962814	-485.003553	989.950725	1542.55031	-172.246797	1065.125458	1511.174692	-288.55074	951.704875	1578.668736	-339.2624	849.842191	1493.902804	-142.645964	862.207754	1430.116498	-93.73302700000001	763.88697	1392.863068	-74.18915800000001	707.855097	1346.311027	-58.780777	936.282139	1481.877325	-559.007554	968.795332	1409.45785	-587.217653	900.625075	1350.458355	-630.160439	888.5743	1282.479621	-652.824765	848.654512	1260.214252	-571.759181	781.496024	1267.710806	-42.213779	892.300749	1149.276172	-65.132531	956.785555	1243.252053	-624.00495	1087.829908	1278.506953	-491.85849	1099.236978	1210.529125	-517.306359	1022.099611	1082.066686	-214.502519	1210.360071	265.976795	-291.631865	560.384693	443.246341	-418.806921	719.505675	1314.26443	-143.390219	934.641686	1188.968404	-102.487272	958.5693	959.958513	-161.245292	1060.739754	1057.744041	-461.261777	
2	0.88	896.328429	1118.954222	-418.096023	873.562079	1117.679401	-306.237281	959.8612000000001	794.066284	-195.102858	1054.878684	667.479705	-201.53991	997.7191340000001	920.578065	-510.330006	884.117281	790.620668	-473.58103	905.291905	647.876042	-469.165484	1182.640197	440.706823	-269.76681	1109.589942	375.95462	-210.049798	793.410051	462.617884	-412.343055	673.079103	530.588452	-463.513478	1111.024929	95.131221	-302.132118	1340.45353	157.643805	-343.110099	1316.572289	90.96249899999999	-257.849578	442.281426	555.26037	-398.816446	406.940274	320.464224	-404.685928	370.040921	375.884878	-495.32845	1023.981428	1563.423588	-484.45328	991.001989	1534.170001	-171.052003	1065.54986	1503.99517	-287.844239	951.568943	1571.603127	-338.440391	851.680636	1483.226432	-138.240321	866.4491	1418.5851	-90.452276	769.708343	1378.736752	-68.51197500000001	714.662639	1331.554389	-52.531986	933.82356	1475.592542	-557.853056	965.559637	1402.641547	-586.441851	896.434633	1344.960429	-629.101437	883.065828	1277.573444	-651.80581	843.536019	1255.59646	-571.162115	789.63426	1253.950229	-37.678439	901.902127	1137.580494	-63.403193	949.753736	1234.934685	-624.640068	1083.296889	1260.246555	-492.004321	1092.100443	1193.426331	-521.267217	1020.144822	1074.345719	-214.442838	1195.503113	253.314207	-293.16802	574.408995	449.913713	-421.831753	725.010292	1300.56096	-137.43892	943.038358	1178.145176	-101.21248	954.626748	951.767058	-161.125157	1058.795277	1050.932729	-462.555389	
3	0.89	894.515975	1111.000536	-417.967692	871.808073	1108.476796	-305.977372	956.4397310000001	785.231437	-198.992415	1051.225401	658.942286	-203.457968	998.564572	914.166789	-511.131888	890.299044	780.094957	-473.407872	917.967313	637.996566	-472.824172	1173.186292	427.457963	-270.695001	1096.436226	365.479809	-211.85297	810.234155	456.106732	-418.188052	692.808925	531.799766	-465.738534	1085.135052	91.25724099999999	-305.145521	1317.612342	133.56835	-345.440595	1288.806131	71.27418400000001	-260.109639	461.349463	565.708	-396.892598	422.437308	331.961739	-412.284932	387.446493	391.539389	-501.202181	1022.417932	1554.889803	-483.775838	992.211717	1524.873462	-169.623616	1065.866835	1495.90109	-287.298817	951.151265	1563.304895	-337.421197	853.727882	1471.221806	-133.523418	871.28532	1405.967754	-86.820578	776.264814	1363.403202	-62.530046	722.495417	1315.52809	-45.81471	930.814522	1468.122913	-556.468648	961.848842	1394.665065	-585.595263	891.924453	1338.193743	-627.801214	876.950289	1271.716756	-650.876264	837.75324	1250.076376	-570.493444	798.774883	1238.879194	-32.81526	912.22807	1124.380617	-61.54692	941.9962849999999	1225.466138	-625.481687	1077.724514	1240.406418	-492.831002	1083.70784	1174.934132	-525.6747789999999	1018.173371	1065.024282	-214.704436	1178.171154	239.62895	-295.51898	590.850405	454.885823	-425.320645	731.183491	1285.582681	-130.971586	952.095055	1165.925038	-99.701016	951.782305	942.202753	-162.198483	1056.738386	1043.431032	-463.886443	
4	0.9	892.307984	1102.363227	-418.131447	869.759285	1098.898879	-305.809149	952.609539	776.499017	-201.177855	1047.476032	649.4748959999999	-204.274719	998.838373	907.085782	-511.901965	897.284369	768.521823	-474.076349	931.5781480000001	627.63175	-476.783184	1163.987428	414.634735	-272.75707	1084.191755	355.70645	-214.360468	828.717367	449.091775	-424.165599	714.131948	531.331364	-468.151921	1054.863279	90.934861	-310.310684	1290.798234	107.40223	-348.537527	1256.262741	55.705917	-261.371924	481.831653	573.214931	-395.510336	441.807754	340.384642	-418.931456	407.882812	403.104639	-506.056278	1020.41114	1545.631583	-483.058923	993.777959	1514.738596	-167.913629	1066.149681	1486.675479	-287.086646	950.411616	1553.731883	-336.060254	856.07683	1457.997012	-128.530847	876.808791	1392.441248	-82.894446	783.705517	1346.969697	-56.381803	731.465178	1298.445824	-38.791818	927.1058420000001	1459.690927	-554.587538	957.601756	1385.775714	-584.653408	887.020396	1330.439139	-626.195631	870.223991	1265.111291	-649.951813	831.236337	1243.900081	-569.62899	808.9488	1222.68809	-27.741737	923.2198550000001	1109.742043	-59.687058	933.529034	1215.006477	-626.594075	1071.237106	1219.206016	-494.693799	1073.994097	1155.081657	-530.534217	1016.058549	1054.683879	-214.861811	1158.447569	226.901092	-300.415456	609.584752	457.828938	-428.956614	738.135002	1269.440783	-123.972862	961.7914029999999	1152.281111	-98.03948200000001	949.906614	931.805019	-164.374817	1054.279561	1035.26352	-465.526848	
5	0.91	889.320152	1093.533452	-418.599287	867.389757	1089.871165	-306.199661	948.764921	768.625594	-201.422282	1044.473615	640.373769	-204.825786	998.540899	899.198317	-512.054356	905.135517	755.8420589999999	-475.777979	946.1763089999999	617.1405590000001	-480.691104	1155.453771	404.290703	-277.489867	1074.409898	348.841583	-218.481597	848.96392	441.988552	-429.598624	736.946314	528.842668	-471.14982	1020.807378	92.79769899999999	-316.971099	1259.628444	86.75406700000001	-353.276435	1220.402982	48.067916	-262.411258	504.018792	577.700856	-394.955809	463.738045	345.594566	-424.341294	430.819133	410.448681	-509.967194	1018.004846	1536.164856	-482.622295	995.828815	1504.059642	-165.914182	1066.544761	1476.509822	-287.187009	949.516644	1543.498102	-334.289908	858.898428	1443.694463	-123.196428	883.194975	1377.994936	-78.955895	792.302656	1329.401433	-50.27989	741.609202	1280.524406	-31.65422	922.764308	1450.663215	-552.23481	952.776829	1376.399005	-583.683186	881.587819	1322.077158	-624.3070719999999	862.886512	1257.997365	-648.916745	824.327051	1237.303252	-568.451677	820.004088	1205.392632	-22.550346	934.846477	1093.839877	-57.975121	924.240287	1203.740762	-627.903916	1063.911321	1196.927306	-497.690852	1062.877492	1134.185742	-535.865804	1013.792485	1044.463136	-214.779975	1136.116924	217.430188	-307.977386	630.407292	458.583099	-432.287552	746.06949	1252.34207	-116.600082	972.1169149999999	1137.269223	-96.419566	947.903591	922.047882	-166.752157	1051.020264	1026.851494	-467.543305	
6	0.92	885.460271	1085.276334	-419.315662	864.570757	1082.061122	-307.497432	945.311076	761.956292	-201.004316	1042.609247	632.908186	-206.052435	998.063561	890.864415	-511.285118	913.72912	742.86285	-478.430641	961.778484	607.356707	-484.181259	1146.367941	397.307397	-284.903088	1065.937829	346.081576	-223.764148	871.107422	435.541871	-434.034986	760.937616	524.7905019999999	-475.013922	984.097546	95.28732100000001	-323.036616	1224.538405	76.161692	-359.120275	1182.57328	47.48726	-263.962615	527.5981399999999	579.166037	-395.510983	487.546808	347.429698	-428.348663	455.636774	413.432708	-513.301344	1015.336572	1527.157229	-482.709313	998.2475439999999	1493.423803	-163.788947	1067.068859	1466.186571	-287.446486	948.8828119999999	1533.905471	-332.163596	862.676771	1428.558531	-117.328348	890.66512	1362.669138	-75.421471	802.283129	1310.80127	-44.454808	752.960726	1262.032365	-24.50011	918.070882	1441.608004	-549.706557	947.370596	1367.200316	-582.8037409999999	875.497632	1313.617648	-622.183046	855.0210970000001	1250.702598	-647.633626	817.497767	1230.522623	-566.861621	831.839708	1186.974237	-17.34834	947.180326	1077.02274	-56.583254	913.99476	1191.956965	-629.183843	1055.658759	1173.935522	-501.532691	1050.369014	1112.916008	-541.694721	1011.268187	1035.424991	-214.645974	1111.116382	212.129174	-316.113727	653.0731939999999	457.360396	-435.050231	755.256859	1234.556357	-109.177963	983.117348	1121.12922	-95.263087	944.555026	914.267297	-168.253948	1046.882936	1018.980532	-469.83237	
7	0.93	881.1086319999999	1078.32838	-420.063673	860.968404	1075.678618	-309.302322	942.032375	756.283403	-201.555018	1040.924673	627.18968	-208.225731	997.841175	883.279804	-509.99007	922.8155839999999	731.2365150000001	-481.642127	978.35301	599.550219	-487.102324	1134.534061	392.404722	-292.875488	1055.163075	346.135846	-228.633569	895.113554	430.564249	-437.313387	785.632659	520.218957	-479.534128	946.028244	97.47291199999999	-326.830925	1186.923203	73.618443	-364.1372	1143.758111	49.59002	-265.992986	551.674947	577.667225	-397.315961	513.323317	345.65959	-431.04787	481.768585	411.917383	-516.518655	1012.667857	1519.15253	-483.23454	1000.654514	1483.57902	-161.898572	1067.515267	1456.820339	-287.750692	948.8867770000001	1526.242947	-329.945405	868.1390249999999	1413.092828	-110.964473	899.277546	1347.019743	-72.60489099999999	813.596225	1291.84794	-39.035096	765.680744	1243.361904	-17.33024	913.411667	1433.26996	-547.337956	941.523607	1358.925907	-582.043286	868.734159	1305.763391	-619.826495	846.8353540000001	1243.752908	-645.937807	810.931994	1223.943705	-564.749309	844.81575	1167.850238	-12.349064	960.4747589999999	1059.892295	-55.66849	902.891731	1180.328718	-630.13773	1046.204271	1150.753341	-505.660291	1036.623248	1092.101151	-547.921461	1008.083694	1028.026494	-214.282139	1083.690249	209.536976	-322.185731	677.370726	454.605272	-437.28796	766.0360429999999	1216.363387	-102.012293	994.981594	1104.360274	-95.119041	939.7443019999999	908.573759	-168.535613	1042.260952	1012.428047	-472.130281	
8	0.9399999999999999	876.741009	1073.115517	-420.432345	856.48839	1070.673255	-310.442972	938.012148	751.323889	-203.572046	1037.311582	622.184232	-210.882048	997.801549	877.987518	-509.110105	932.149464	722.607635	-484.824599	995.750686	594.968926	-489.549396	1118.4389	387.161693	-298.864439	1039.024104	345.943383	-231.961981	920.687909	427.618555	-439.498109	810.535664	516.004999	-484.023493	907.562754	99.083375	-328.283898	1148.324001	73.774524	-366.827028	1104.646979	50.686424	-267.805753	575.1433919999999	573.2269659999999	-400.225744	541.576983	340.153172	-432.718773	509.376818	405.595008	-519.549663	1010.283083	1512.368218	-483.852245	1002.688585	1475.153914	-160.60488	1067.621458	1449.285759	-288.100998	949.434693	1520.900848	-328.103387	875.641732	1398.160666	-104.823227	908.739941	1332.30825	-70.53682999999999	825.907104	1273.882961	-34.024417	780.072966	1225.140919	-10.196772	909.114676	1426.387835	-545.324539	935.5527499999999	1352.109329	-581.241089	861.4296450000001	1299.359509	-617.173817	838.53576	1237.929605	-643.688251	804.430133	1218.205129	-562.030602	859.809509	1149.256542	-7.915844	975.146356	1043.378296	-55.350393	891.388717	1170.094517	-630.572314	1035.272072	1128.258235	-509.58558	1021.89629	1072.585957	-554.225471	1003.953012	1022.169417	-213.015396	1054.152401	207.039099	-325.290015	703.051836	450.68605	-439.182786	778.643357	1198.221885	-95.203636	1008.055702	1087.793814	-96.267537	934.623999	904.069169	-168.209599	1037.628816	1007.629259	-474.027445	
